<svg width="22" height="22" viewBox="0 0 22 22" fill="none" xmlns="http://www.w3.org/2000/svg">
<path fill-rule="evenodd" clip-rule="evenodd" d="M19.8583 13.392L13.5 19.7503L10.375 20.3753L11 17.2503L17.3583 10.892C17.6888 10.561 18.1373 10.375 18.605 10.375C19.0727 10.375 19.5212 10.561 19.8517 10.892L19.8583 10.8986C20.1893 11.2291 20.3753 11.6776 20.3753 12.1453C20.3753 12.613 20.1893 13.0615 19.8583 13.392V13.392Z" stroke="white" stroke-width="1.5" stroke-linecap="round" stroke-linejoin="round"/>
<path d="M10.375 14.125H2.875C2.18464 14.125 1.625 13.5654 1.625 12.875V2.875C1.625 2.18464 2.18464 1.625 2.875 1.625H17.875C18.5654 1.625 19.125 2.18464 19.125 2.875V7.875" stroke="white" stroke-width="1.5" stroke-linecap="round" stroke-linejoin="round"/>
<path d="M18.8425 2.08301L12.0558 7.30301C11.0649 8.0653 9.68505 8.0653 8.69414 7.30301L1.90747 2.08301" stroke="white" stroke-width="1.5" stroke-linecap="round" stroke-linejoin="round"/>
</svg>
