<svg width="22" height="22" viewBox="0 0 22 22" fill="none" xmlns="http://www.w3.org/2000/svg">
<path fill-rule="evenodd" clip-rule="evenodd" d="M4.125 3.12207C4.125 2.29364 4.79657 1.62207 5.625 1.62207H18.875C19.7034 1.62207 20.375 2.29364 20.375 3.12207V16.3721C20.375 17.2005 19.7034 17.8721 18.875 17.8721H5.625C4.79657 17.8721 4.125 17.2005 4.125 16.3721V3.12207Z" stroke="#264AE5" stroke-width="1.5" stroke-linecap="round" stroke-linejoin="round"/>
<path d="M6.83325 10.63L9.33325 13.13C9.45033 13.2472 9.60923 13.3131 9.77492 13.3131C9.94061 13.3131 10.0995 13.2472 10.2166 13.13L17.2749 6.07167V6" stroke="#264AE5" stroke-width="1.5" stroke-linecap="round" stroke-linejoin="round"/>
<path d="M17.875 20.3721H2.875C2.18464 20.3721 1.625 19.8124 1.625 19.1221V4.12207" stroke="#264AE5" stroke-width="1.5" stroke-linecap="round" stroke-linejoin="round"/>
</svg>
