<svg width="20" height="21" viewBox="0 0 20 21" fill="none" xmlns="http://www.w3.org/2000/svg">
<path fill-rule="evenodd" clip-rule="evenodd" d="M19.2608 13.3964L17.543 12.4044C17.7164 11.469 17.7164 10.5093 17.543 9.57381L19.2608 8.58188C19.4583 8.46898 19.547 8.23511 19.4825 8.01737C19.035 6.58189 18.2729 5.28351 17.2769 4.20287C17.1237 4.03754 16.8737 3.99722 16.6801 4.11013L14.9624 5.10206C14.2406 4.48109 13.41 4.00126 12.5108 3.68674V1.70691C12.5108 1.4811 12.3535 1.28352 12.1318 1.23514C10.6519 0.904493 9.1358 0.920621 7.72855 1.23514C7.50677 1.28352 7.34951 1.4811 7.34951 1.70691V3.69077C6.45436 4.00932 5.62371 4.48916 4.89791 5.10609L3.18421 4.11416C2.98663 4.00126 2.74066 4.03755 2.58744 4.2069C1.59147 5.28351 0.829378 6.58189 0.381799 8.0214C0.313251 8.23914 0.405993 8.47301 0.603572 8.58592L2.32131 9.57785C2.14792 10.5133 2.14792 11.473 2.32131 12.4085L0.603572 13.4004C0.405993 13.5133 0.317283 13.7472 0.381799 13.9649C0.829378 15.4004 1.59147 16.6988 2.58744 17.7794C2.74066 17.9447 2.99066 17.9851 3.18421 17.8722L4.90194 16.8802C5.62371 17.5012 6.45436 17.981 7.35355 18.2956V20.2794C7.35355 20.5052 7.5108 20.7028 7.73258 20.7512C9.21241 21.0818 10.7285 21.0657 12.1358 20.7512C12.3576 20.7028 12.5148 20.5052 12.5148 20.2794V18.2956C13.41 17.977 14.2406 17.4972 14.9664 16.8802L16.6842 17.8722C16.8817 17.9851 17.1277 17.9488 17.2809 17.7794C18.2769 16.7028 19.039 15.4044 19.4866 13.9649C19.5471 13.7432 19.4583 13.5093 19.2608 13.3964ZM9.93015 14.2149C8.15193 14.2149 6.70436 12.7674 6.70436 10.9891C6.70436 9.21091 8.15193 7.76334 9.93015 7.76334C11.7084 7.76334 13.1559 9.21091 13.1559 10.9891C13.1559 12.7674 11.7084 14.2149 9.93015 14.2149Z" fill="#264AE5"/>
</svg>
