<svg xmlns="http://www.w3.org/2000/svg" xml:space="preserve" width="192px" height="192px" version="1.1" style="shape-rendering:geometricPrecision; text-rendering:geometricPrecision; image-rendering:optimizeQuality; fill-rule:evenodd; clip-rule:evenodd" viewBox="0 0 192 192" xmlns:xlink="http://www.w3.org/1999/xlink"><path fill="#ececee" d="M167.53 129.88l-19.95 0 -7.52 -15.27 -7.52 15.27 -19.95 0 -18.25 0 0 -48.65c-0.09,-4.05 -3.4,-7.28 -7.51,-7.28 -4.11,0 -7.52,3.23 -7.52,7.28l0 0.51 0 48.14 -0.41 0 -19.44 0 0 -48.75c-0.11,-4.04 -3.41,-7.28 -7.52,-7.28 -4.11,0 -7.52,3.24 -7.52,7.28l0 48.75 -19.95 0 0 -67.76 19.95 0 0 7.89 0.3 0c1.9,-2.94 4.31,-4.96 7.02,-6.18 2.71,-1.1 5.91,-1.71 9.72,-1.71 3.51,0 6.72,0.7 9.42,2.22 2.71,1.42 4.92,3.44 6.52,6.07 2.41,-2.83 5.01,-4.96 7.92,-6.27 2.91,-1.32 6.52,-2.02 10.63,-2.02 2.41,0 4.61,0.4 6.82,1.01 2.1,0.7 4,1.62 5.61,2.83 1.6,1.22 2.91,2.73 3.91,4.45 1,1.72 1.91,4.75 1.91,6.98l0 2.93 0 46.32 15.44 -30.64 -17.05 -33.88 19.95 0 7.52 15.27 7.52 -15.27 19.95 0 -17.04 33.88 17.04 33.88zm-141.92 -129.88c-14.1,0 -25.61,11.51 -25.61,25.61l0 140.78c0,14.1 11.51,25.61 25.61,25.61l140.78 0c14.1,0 25.71,-11.51 25.61,-25.61l0 -140.78c0,-14.1 -11.51,-25.61 -25.61,-25.61l-140.78 0z"/></svg>
