<svg width="14" height="16" viewBox="0 0 14 16" fill="none" xmlns="http://www.w3.org/2000/svg">
<g clip-path="url(#clip0_1972_11868)">
<path d="M11.3811 2.61906C10.6186 1.85625 9.38114 1.85625 8.61864 2.61906L2.86865 8.36907C1.55334 9.68469 1.55334 11.8159 2.86865 13.1316C4.18427 14.4472 6.31552 14.4472 7.63114 13.1316L12.3811 8.38157C12.7218 8.04094 13.278 8.04094 13.6186 8.38157C13.9593 8.72219 13.9593 9.27844 13.6186 9.61907L8.86864 14.3691C6.86864 16.3691 3.63115 16.3691 1.63115 14.3691C-0.367285 12.3691 -0.367285 9.13157 1.63115 7.13157L7.38114 1.38156C8.82802 -0.0646878 11.1718 -0.0646878 12.6186 1.38156C14.0655 2.82781 14.0655 5.17219 12.6186 6.61907L7.11864 12.1191C6.22489 13.0128 4.7749 13.0128 3.88115 12.1191C2.98709 11.2253 2.98709 9.77532 3.88115 8.88157L8.38114 4.38157C8.72177 4.04094 9.27802 4.04094 9.61864 4.38157C9.95926 4.72219 9.95926 5.27844 9.61864 5.61907L5.11865 10.1191C4.90927 10.3284 4.90927 10.6722 5.11865 10.8816C5.32802 11.0909 5.67177 11.0909 5.88115 10.8816L11.3811 5.38157C12.1436 4.61907 12.1436 3.38156 11.3811 2.61906Z" fill="#0A1325"/>
</g>
<defs>
<clipPath id="clip0_1972_11868">
<rect width="14" height="16" fill="white"/>
</clipPath>
</defs>
</svg>
