<svg width="22" height="22" viewBox="0 0 22 22" fill="none" xmlns="http://www.w3.org/2000/svg">
<path d="M13.5 16.625H10.375V19.75" stroke="#264AE5" stroke-width="1.5" stroke-linecap="round" stroke-linejoin="round"/>
<path d="M19.8892 17.2358C19.2086 19.2246 17.2769 20.5082 15.1798 20.3651C13.0826 20.2219 11.3432 18.6878 10.9392 16.625" stroke="#264AE5" stroke-width="1.5" stroke-linecap="round" stroke-linejoin="round"/>
<path d="M17.25 14.125H20.375V11" stroke="#264AE5" stroke-width="1.5" stroke-linecap="round" stroke-linejoin="round"/>
<path d="M10.8608 13.5141C11.5414 11.5253 13.4731 10.2418 15.5703 10.3849C17.6674 10.528 19.4068 12.0621 19.8108 14.125" stroke="#264AE5" stroke-width="1.5" stroke-linecap="round" stroke-linejoin="round"/>
<path d="M7.875 14.125H2.875C2.18464 14.125 1.625 13.5654 1.625 12.875V2.875C1.625 2.18464 2.18464 1.625 2.875 1.625H17.875C18.5654 1.625 19.125 2.18464 19.125 2.875V7.875" stroke="#264AE5" stroke-width="1.5" stroke-linecap="round" stroke-linejoin="round"/>
<path d="M18.8425 2.08301L12.0558 7.30301C11.0649 8.0653 9.68508 8.0653 8.69417 7.30301L1.9075 2.08301" stroke="#264AE5" stroke-width="1.5" stroke-linecap="round" stroke-linejoin="round"/>
</svg>
