<svg width="22" height="22" viewBox="0 0 22 22" fill="none" xmlns="http://www.w3.org/2000/svg">
<path fill-rule="evenodd" clip-rule="evenodd" d="M20.375 9.28167C20.3753 14.7716 16.4131 19.46 11 20.375C5.58687 19.46 1.62467 14.7716 1.625 9.28167V2.875C1.625 2.18464 2.18464 1.625 2.875 1.625H19.125C19.8154 1.625 20.375 2.18464 20.375 2.875V9.28167Z" stroke="#264AE5" stroke-width="1.5" stroke-linecap="round" stroke-linejoin="round"/>
<path fill-rule="evenodd" clip-rule="evenodd" d="M11 11C11.6904 11 12.25 10.4404 12.25 9.75C12.25 9.05964 11.6904 8.5 11 8.5C10.3096 8.5 9.75 9.05964 9.75 9.75C9.75 10.4404 10.3096 11 11 11Z" stroke="#264AE5" stroke-width="1.5" stroke-linecap="round" stroke-linejoin="round"/>
<path fill-rule="evenodd" clip-rule="evenodd" d="M12.0617 4.91706L12.4301 6.1279C12.5562 6.54491 12.9838 6.79295 13.4084 6.6954L14.6351 6.41123C15.1123 6.30367 15.604 6.51953 15.8478 6.94367C16.0916 7.3678 16.0307 7.90128 15.6976 8.25956L14.8384 9.1829C14.5409 9.50276 14.5409 9.99803 14.8384 10.3179L15.6976 11.2437C16.0307 11.602 16.0916 12.1355 15.8478 12.5596C15.604 12.9838 15.1123 13.1996 14.6351 13.0921L13.4084 12.8079C12.9838 12.7103 12.5562 12.9584 12.4301 13.3754L12.0617 14.5837C11.9212 15.0527 11.4896 15.3738 11.0001 15.3738C10.5105 15.3738 10.079 15.0527 9.93841 14.5837L9.57007 13.3729C9.44395 12.9559 9.01635 12.7078 8.59174 12.8054L7.36507 13.0896C6.88783 13.1971 6.39618 12.9813 6.15237 12.5571C5.90856 12.133 5.96946 11.5995 6.30258 11.2412L7.16174 10.3154C7.4592 9.99553 7.4592 9.50026 7.16174 9.1804L6.30258 8.25706C5.96946 7.89878 5.90856 7.3653 6.15237 6.94117C6.39618 6.51703 6.88783 6.30117 7.36507 6.40873L8.59174 6.6929C9.01635 6.79045 9.44395 6.54241 9.57007 6.1254L9.93841 4.91706C10.079 4.44813 10.5105 4.12695 11.0001 4.12695C11.4896 4.12695 11.9212 4.44813 12.0617 4.91706Z" stroke="#264AE5" stroke-width="1.5" stroke-linecap="round" stroke-linejoin="round"/>
</svg>
