<svg width="20" height="22" viewBox="0 0 20 22" fill="none" xmlns="http://www.w3.org/2000/svg">
<path d="M16.25 11.7333V2.875C16.25 2.18464 15.6904 1.625 15 1.625H5C4.30964 1.625 3.75 2.18464 3.75 2.875V11.7333" stroke="#264AE5" stroke-width="1.5" stroke-linecap="round" stroke-linejoin="round"/>
<path fill-rule="evenodd" clip-rule="evenodd" d="M17.7367 10.5542C17.9245 10.4053 18.1809 10.3769 18.3967 10.4811C18.6125 10.5853 18.7498 10.8037 18.75 11.0434V19.1267C18.75 19.8171 18.1904 20.3767 17.5 20.3767H2.5C1.80964 20.3767 1.25 19.8171 1.25 19.1267V11.0434C1.25021 10.8037 1.38746 10.5853 1.60329 10.4811C1.81913 10.3769 2.07554 10.4053 2.26333 10.5542L8.45583 15.4659C9.36221 16.1778 10.6378 16.1778 11.5442 15.4659L17.7367 10.5542Z" stroke="#264AE5" stroke-width="1.5" stroke-linecap="round" stroke-linejoin="round"/>
<path d="M6.875 5.375H9.375" stroke="#264AE5" stroke-width="1.5" stroke-linecap="round" stroke-linejoin="round"/>
<path d="M6.875 7.875H13.125" stroke="#264AE5" stroke-width="1.5" stroke-linecap="round" stroke-linejoin="round"/>
<path d="M6.875 10.375H13.125" stroke="#264AE5" stroke-width="1.5" stroke-linecap="round" stroke-linejoin="round"/>
</svg>
