<svg width="22" height="22" viewBox="0 0 22 22" fill="none" xmlns="http://www.w3.org/2000/svg">
<path fill-rule="evenodd" clip-rule="evenodd" d="M15.375 16C16.0654 16 16.625 15.4404 16.625 14.75C16.625 14.0596 16.0654 13.5 15.375 13.5C14.6846 13.5 14.125 14.0596 14.125 14.75C14.125 15.4404 14.6846 16 15.375 16Z" stroke="#264AE5" stroke-width="1.5" stroke-linecap="round" stroke-linejoin="round"/>
<path fill-rule="evenodd" clip-rule="evenodd" d="M16.4367 9.91652L16.805 11.1274C16.9308 11.5443 17.3581 11.7923 17.7825 11.6949L19.01 11.4099C19.4874 11.3023 19.9793 11.5184 20.2229 11.9428C20.4666 12.3673 20.4053 12.9009 20.0717 13.259L19.2133 14.1849C18.9159 14.5047 18.9159 15 19.2133 15.3199L20.0717 16.2457C20.4058 16.6035 20.4674 17.1375 20.2236 17.562C19.9797 17.9866 19.4875 18.2024 19.01 18.094L17.7825 17.8099C17.358 17.7119 16.9304 17.9602 16.805 18.3774L16.4367 19.5832C16.2956 20.0518 15.864 20.3726 15.3746 20.3726C14.8852 20.3726 14.4536 20.0518 14.3125 19.5832L13.9442 18.3732C13.8188 17.956 13.3911 17.7078 12.9667 17.8057L11.7392 18.0899C11.2617 18.1982 10.7695 17.9824 10.5256 17.5578C10.2818 17.1333 10.3434 16.5994 10.6775 16.2415L11.5358 15.3157C11.8333 14.9958 11.8333 14.5006 11.5358 14.1807L10.6775 13.2549C10.3439 12.8968 10.2826 12.3631 10.5262 11.9387C10.7699 11.5142 11.2617 11.2981 11.7392 11.4057L12.9667 11.6907C13.3911 11.7882 13.8184 11.5401 13.9442 11.1232L14.3125 9.91236C14.4545 9.44398 14.8867 9.12404 15.3761 9.125C15.8656 9.12596 16.2965 9.4476 16.4367 9.91652Z" stroke="#264AE5" stroke-width="1.5" stroke-linecap="round" stroke-linejoin="round"/>
<path d="M9.54667 9.41682C8.69095 8.8166 7.67023 8.49635 6.625 8.50016C4.09031 8.48029 1.94177 10.3603 1.625 12.8752" stroke="#264AE5" stroke-width="1.5" stroke-linecap="round" stroke-linejoin="round"/>
<path fill-rule="evenodd" clip-rule="evenodd" d="M6.625 7.25C8.1783 7.25 9.4375 5.9908 9.4375 4.4375C9.4375 2.8842 8.1783 1.625 6.625 1.625C5.0717 1.625 3.8125 2.8842 3.8125 4.4375C3.8125 5.9908 5.0717 7.25 6.625 7.25Z" stroke="#264AE5" stroke-width="1.5" stroke-linecap="round" stroke-linejoin="round"/>
<path fill-rule="evenodd" clip-rule="evenodd" d="M14.75 6C15.9581 6 16.9375 5.02062 16.9375 3.8125C16.9375 2.60438 15.9581 1.625 14.75 1.625C13.5419 1.625 12.5625 2.60438 12.5625 3.8125C12.5625 5.02062 13.5419 6 14.75 6Z" stroke="#264AE5" stroke-width="1.5" stroke-linecap="round" stroke-linejoin="round"/>
<path d="M17.2718 7.60043C16.5264 6.92327 15.5401 6.57433 14.5347 6.63217C13.5294 6.69001 12.5895 7.14976 11.9268 7.90793" stroke="#264AE5" stroke-width="1.5" stroke-linecap="round" stroke-linejoin="round"/>
</svg>
